<?xml version="1.0" standalone="no"?>
<!DOCTYPE svg PUBLIC "-//W3C//DTD SVG 1.1//EN" "http://www.w3.org/Graphics/SVG/1.1/DTD/svg11.dtd" >
<svg xmlns="http://www.w3.org/2000/svg">
<metadata></metadata>
<defs>
<font id="lektonitalic" horiz-adv-x="1024" >
<font-face units-per-em="2048" ascent="1536" descent="-512" />
<missing-glyph horiz-adv-x="500" />
<glyph horiz-adv-x="0" />
<glyph unicode="&#xd;" horiz-adv-x="681" />
<glyph unicode=" " />
<glyph unicode="!" d="M293 -12l26 176h142l-27 -176h-141zM375 385l153 1024h131l-190 -1024h-94z" />
<glyph unicode="&#x22;" d="M272 948l62 445h102l-61 -445h-103zM584 948l61 445h103l-62 -445h-102z" />
<glyph unicode="#" d="M-88 393l14 90h283l106 414h-282l14 88h291l94 356h107l-95 -356h297l93 356h106l-92 -356h270l-14 -88h-281l-106 -414h278l-14 -90h-289l-104 -393h-109l107 393h-295l-107 -393h-106l106 393h-272zM315 483h295l107 414h-295z" />
<glyph unicode="$" d="M59 43l37 102q182 -59 306 -59t212 72.5t102.5 197.5t-37.5 176.5t-222 96.5t-237.5 122.5t-49.5 228t116.5 234.5t233.5 99l23 172h98l-20 -170q152 -6 299 -64l-39 -102q-162 63 -301 63q-266 0 -293 -225q-12 -111 39 -166t219 -98t237.5 -124t50 -240.5t-125 -259 t-258.5 -113.5l-21 -174h-98l22 172q-129 8 -293 59z" />
<glyph unicode="%" d="M39 1060q0 114 82 197.5t195.5 83.5t172 -62t58.5 -178t-80 -201t-193.5 -85t-174 65.5t-60.5 179.5zM88 0l729 1362h115l-729 -1362h-115zM145 1065q0 -76 33 -119t104.5 -43t116.5 55.5t45 143.5q0 153 -129 153q-76 0 -123 -57t-47 -133zM475 244.5q0 113.5 81 197.5 t194.5 84t173 -62.5t59.5 -178t-81 -200.5t-194.5 -85t-173 65.5t-59.5 179zM580 250q0 -76 32.5 -119t104 -43t117 55.5t45.5 143.5q0 153 -127 153q-78 0 -125 -57t-47 -133z" />
<glyph unicode="&#x26;" d="M29 403q25 291 340 418q-80 166 -66 275q8 111 96 189.5t200 78.5t184.5 -79t61.5 -197.5t-81 -192.5t-240 -145l213 -424q90 158 170 422l92 -17q-73 -276 -204 -491l133 -217l-82 -66q-82 115 -125 199q-166 -176 -346 -176t-273.5 111.5t-72.5 311.5zM137 403 q-16 -152 48.5 -238.5t195.5 -86.5q72 0 152 44t139 114l-264 505q-250 -104 -271 -338zM410.5 1095.5q-7.5 -69.5 10 -126t64.5 -138.5q125 50 182.5 110t66.5 142t-33 132.5t-109.5 50.5t-120.5 -50.5t-60.5 -120z" />
<glyph unicode="'" d="M424 948l61 445h103l-62 -445h-102z" />
<glyph unicode="(" d="M377 651q37 307 141 534.5t270 444.5l84 -55q-154 -201 -249 -414q-98 -215 -133 -510t13 -508t154 -413l-98 -58q-117 219 -166 447q-53 225 -16 532z" />
<glyph unicode=")" d="M150 -262q150 195 247 409.5t133 511.5q33 297 -14 510t-151 414l96 55q115 -213 165 -442t13 -536.5t-139.5 -535.5t-266.5 -443z" />
<glyph unicode="*" d="M156 1034l10 92h287l-54 287l90 31l54 -291l252 178l43 -74l-254 -180l213 -174l-64 -80l-211 181l-123 -287l-82 33l123 284h-284z" />
<glyph unicode="+" d="M68 532l18 95h379l67 405h99l-66 -405h389l-20 -95h-383l-68 -407h-100l66 407h-381z" />
<glyph unicode="," d="M313 -244q106 133 127 244h-78l31 229h187l-23 -168q-23 -180 -197 -354z" />
<glyph unicode="-" d="M195 436l18 107h586l-19 -107h-585z" />
<glyph unicode="." d="M348 0l29 229h184l-29 -229h-184z" />
<glyph unicode="/" d="M-29 -39l981 1493l88 -45l-987 -1493z" />
<glyph unicode="0" d="M125 657.5q59 368.5 173 516t321.5 149.5t275.5 -157.5t9.5 -526.5t-174.5 -515.5t-322.5 -148.5t-274 157t-8.5 525.5zM231.5 220q38.5 -132 189 -132t231.5 125t130 434q53 295 14.5 429t-192 134t-232.5 -129t-129 -429t-11.5 -432z" />
<glyph unicode="1" d="M100 0l17 102h329l177 1078l-351 -156l-22 98l405 178h103l-197 -1198h275l-17 -102h-719z" />
<glyph unicode="2" d="M104 0v100q51 104 138 201q90 96 176 166l168 143q193 168 223 330q23 123 -31.5 196.5t-165 73.5t-317.5 -133l-41 82q221 158 375.5 158t234.5 -99.5t53.5 -276.5t-152.5 -307t-245 -222q-211 -164 -284 -299h600l-19 -113h-713z" />
<glyph unicode="3" d="M25 61l47 97q174 -72 330.5 -72t252 66.5t118 205t-39 204t-209.5 65.5l-227 -25v94l152 23q350 51 374 266q12 117 -55.5 173t-183.5 56q-109 0 -240 -45l-41 -14l-31 92q408 150 584 -6q98 -86 82 -248q-14 -119 -71.5 -185.5t-176.5 -111.5v-4q119 -20 169 -107 t28 -227q-61 -379 -486 -378q-172 0 -376 81z" />
<glyph unicode="4" d="M98 260v96l469 942h111l-459 -931h408l69 430h109l-70 -430h168l-16 -107h-170l-47 -280h-107l45 280h-510z" />
<glyph unicode="5" d="M55 66l51 104q172 -84 308.5 -84t225.5 93t108.5 240.5t-39 225.5t-185.5 78t-278 -119l-74 23l111 671h655l-20 -108h-549l-72 -449q131 88 252 88q176 0 258 -107.5t54.5 -305t-148.5 -317t-316 -119.5q-150 0 -342 86z" />
<glyph unicode="6" d="M96 426q59 356 229.5 560t532.5 347l19 -102q-279 -129 -402.5 -240.5t-195.5 -279.5q141 117 294 116q201 0 291 -105.5t51 -301.5q-88 -440 -499 -440q-180 0 -266.5 116.5t-53.5 329.5zM209 426q-61 -340 244 -340q141 0 230 88t114 246q49 301 -240 301 q-125 0 -224.5 -78t-123.5 -217z" />
<glyph unicode="7" d="M164 1083l63 215h721q-6 -84 -41 -186q-39 -100 -129 -246l-172 -264q-82 -119 -154.5 -283.5t-91.5 -318.5h-120q16 147 77 301q59 154 138 279l153 235q184 272 201 377h-504l-43 -117z" />
<glyph unicode="8" d="M49 340q43 242 273 324q-170 100 -136 313q25 156 138.5 248t301 92t271.5 -97.5t59 -252.5q-39 -219 -243 -299q205 -82 161 -338q-29 -166 -149.5 -258t-321 -92t-292 97t-62.5 263zM168.5 345q-21.5 -124 43 -191.5t208 -67.5t232.5 67.5t110.5 191.5t-43 195.5 t-207.5 71.5t-232.5 -71.5t-111 -195.5zM293.5 967.5q-19.5 -111.5 37 -182t196 -70.5t217 68.5t98.5 183.5q18 115 -38 179t-193.5 64t-217.5 -65.5t-99.5 -177z" />
<glyph unicode="9" d="M170 891.5q31 191.5 159 308.5t314 117t273.5 -112.5t56.5 -306t-112 -355.5t-186.5 -287t-281.5 -291l-133 23q233 217 337.5 343t172.5 273q-68 -57 -126 -86t-138 -29q-191 0 -279 105.5t-57 297zM287.5 891.5q-23.5 -146.5 32 -221t189.5 -74.5t228 84t115 211 q49 319 -229 319q-134 0 -223 -86t-112.5 -232.5z" />
<glyph unicode=":" d="M328 0l26 209h178l-26 -209h-178zM410 621l26 208h178l-26 -208h-178z" />
<glyph unicode=";" d="M287 -244q104 133 127 244h-72l29 209h180l-21 -148q-27 -184 -196 -354zM426 621l27 208h180l-29 -208h-178z" />
<glyph unicode="&#x3c;" d="M98 565l8 66l801 481l43 -84l-731 -430l610 -451l-61 -84z" />
<glyph unicode="=" d="M53 334l15 90h872l-14 -90h-873zM100 678l15 90h872l-14 -90h-873z" />
<glyph unicode="&#x3e;" d="M92 168l727 430l-608 451l63 84l668 -502l-8 -66l-801 -481z" />
<glyph unicode="?" d="M176 1235q121 90 207 133t180 43q141 0 226 -81t67 -226q-12 -119 -57 -191q-45 -74 -160 -176t-145.5 -147t-39 -114.5t-10.5 -133.5l-102 -4q-6 45 0 149q12 90 51 148q41 55 156 157.5t149.5 160t47 149.5t-42 147.5t-142.5 55.5t-160.5 -38t-175.5 -116zM279 0 l24 190h164l-23 -190h-165z" />
<glyph unicode="@" d="M107.5 423.5q48.5 317.5 192.5 484.5t368 167q96 0 170.5 -19.5t101.5 -39.5l27 -19l-136 -886q-123 -55 -284 -56q-254 0 -193 387q68 354 308 355q102 0 159 -23l21 -8l-25 -102q-47 29 -168 28q-154 0 -184 -250q-29 -119 -6.5 -200.5t119.5 -81.5q74 0 135 12l24 6 l113 750q-39 41 -201 41t-274.5 -141.5t-152.5 -406.5t38 -401.5t205 -136.5t301 56l10 -105q-172 -57 -327 -57q-197 0 -293.5 164.5t-48 482z" />
<glyph unicode="A" d="M-61 0l600 1341h196l154 -1341h-121l-35 309h-543l-135 -309h-116zM236 412h485l-88 833h-29z" />
<glyph unicode="B" d="M66 0l219 1341h268q240 -1 343 -79q80 -61 80 -189q0 -37 -7 -80q-18 -121 -79 -194.5t-177 -110.5q217 -52 217 -266q0 -19 -2 -39q-18 -215 -154.5 -299t-384.5 -84h-323zM188 102h220q180 0 282 62q102 60 124 208q5 31 4 58q0 102 -68 148q-86 58 -240 57h-234z M291 735h233q139 0 226 68q90 67 110 197q4 27 5 50q0 92 -64 134q-80 54 -254 55h-172z" />
<glyph unicode="C" d="M106 684q57 348 190.5 513t365.5 165q154 0 299 -51l-46 -271h-106l29 183q-76 32 -184 32h-7q-168 0 -269.5 -139t-152.5 -432q-22 -141 -22 -246q1 -132 35 -210q62 -140 225 -140q117 0 295 55l8 -104q-172 -57 -324 -57q-223 0 -308 164q-51 98 -51 271q0 116 23 267 z" />
<glyph unicode="D" d="M33 0l221 1341h268q300 1 392 -155q58 -98 58 -278q0 -105 -20 -238q-57 -397 -217 -539q-84 -74 -185 -102.5t-247 -28.5h-270zM156 102h163q156 0 250 45q195 92 269 523q20 131 20 229q0 143 -43 217q-72 122 -305 123h-168z" />
<glyph unicode="E" d="M104 0l222 1341h659l-16 -102h-553l-84 -508h504l-17 -102h-504l-86 -527h562l-17 -102h-670z" />
<glyph unicode="F" d="M88 0l219 1341h662l-17 -102h-555l-96 -586h475l-16 -102h-475l-90 -551h-107z" />
<glyph unicode="G" d="M104 672q58 364 197 527t393 163q166 0 338 -66l-45 -104q-176 63 -309 63q-193 0 -296 -136t-156 -447q-25 -144 -25 -251q0 -125 33 -199q61 -134 239 -134h10q121 2 260 47l68 410h-233l18 102h336l-96 -592q-214 -73 -373 -73h-4q-238 0 -325 162q-52 98 -52 269 q0 113 22 259z" />
<glyph unicode="H" d="M27 0l219 1341h106l-102 -624h543l102 624h106l-219 -1341h-106l100 614h-543l-100 -614h-106z" />
<glyph unicode="I" d="M98 0l17 102h217l186 1137h-223l16 102h541l-16 -102h-211l-187 -1137h219l-16 -102h-543z" />
<glyph unicode="J" d="M51 12l33 107q125 -35 215 -35t126 62.5t75 299.5l129 793h-318l17 102h518l-17 -102h-94l-129 -799q-45 -283 -102.5 -371.5t-222.5 -91.5q-35 0 -116 12.5t-114 22.5z" />
<glyph unicode="K" d="M57 0l219 1341h109l-104 -632l165 20q158 209 336 508l62 104h123q-246 -410 -426 -651q45 -92 114 -264l166 -426h-129q-166 453 -250 629l-178 -21l-98 -608h-109z" />
<glyph unicode="L" d="M117 0l217 1341h108l-202 -1239h532l-14 -102h-641z" />
<glyph unicode="M" d="M6 0l223 1341h113l162 -749h12l365 749h137l-221 -1341h-107l178 1092l-303 -603h-137l-133 603l-180 -1092h-109z" />
<glyph unicode="N" d="M0 0l221 1341h105l432 -942l155 942h107l-219 -1341h-105l33 211l-434 932l-186 -1143h-109z" />
<glyph unicode="O" d="M82 320v35q0 145 29 333q53 326 172 500t350 174q158 0 236.5 -89t82.5 -239v-36q0 -134 -26 -294q-30 -182 -66 -301q-37 -119 -98 -219q-122 -204 -365 -204h-2q-154 0 -231.5 92t-81.5 248zM194 346q4 -84 25 -138t69 -89t131 -35t154 49q70 47 115 141 q80 164 123 414q28 152 28 264q0 108 -26 178q-20 53 -70.5 90t-128 37t-139 -36.5t-101.5 -89t-71 -134.5t-47 -150.5t-32 -164.5q-18 -96 -26 -174q-6 -55 -5 -114q0 -24 1 -48z" />
<glyph unicode="P" d="M39 0l219 1341h285q233 0 329 -93q70 -67 70 -206q0 -52 -10 -116q-37 -230 -166 -330t-360 -100h-179l-84 -496h-104zM244 598h178q180 0 274 74q94 76 123 254q8 52 8 95q0 103 -49 151q-70 68 -252 67h-178z" />
<glyph unicode="Q" d="M82 320v35q0 145 29 333q55 326 172.5 500t349.5 174q158 0 236.5 -87t82.5 -237v-35q0 -138 -26 -315q-68 -401 -219 -569l81 -180l-77 -89l-93 193q-98 -63 -238 -63t-217 92t-81 248zM196 465q-3 -35 -3 -70q0 -61 8 -121q27 -190 211 -190q84 0 151 45l-90 113 l68 106l106 -137q102 135 164 477q28 152 28 264q0 108 -26 178q-20 53 -70.5 90t-128 37t-139 -36.5t-101.5 -89t-71 -134.5t-47 -150.5t-34.5 -177t-25.5 -204.5z" />
<glyph unicode="R" d="M49 0l217 1341h287q238 0 336 -85q72 -63 72 -197q0 -48 -9 -105q-27 -145 -96.5 -232t-200.5 -142q90 -279 148 -580h-117q-59 293 -143 555q-111 -6 -137 -6h-160l-92 -549h-105zM262 651h154q180 0 286 67q108 68 136 236q8 46 7 85q1 99 -53 141q-74 58 -257 59h-177 z" />
<glyph unicode="S" d="M78 41l37 102q188 -57 310 -57t209 70q88 71 102 198q3 28 3 53q1 87 -39 133q-50 60 -220 104t-240 129q-55 67 -55 180q1 31 5 67q20 162 136 252t283 90t333 -64l-39 -102q-152 61 -288 61t-216 -61t-93 -175q-3 -23 -3 -43q0 -84 42 -132q52 -60 220 -108 q169 -48 237 -127q53 -61 52 -178q0 -35 -4 -76q-20 -175 -144 -275t-300 -100q-133 0 -328 59z" />
<glyph unicode="T" d="M188 1239l17 102h778l-14 -102h-340l-203 -1239h-107l203 1239h-334z" />
<glyph unicode="U" d="M86 389l156 952h106l-153 -946q-9 -52 -9 -96q0 -219 230 -219q137 0 220 87t107 228l156 946h107l-156 -952q-35 -199 -150 -303t-303 -104t-265 108q-55 77 -55 197q0 47 9 102z" />
<glyph unicode="V" d="M162 1341h110l142 -1241h16l543 1241h119l-592 -1341h-195z" />
<glyph unicode="W" d="M57 0l58 1341h110l-55 -1239h12l269 656h145l68 -656h12l328 1239h118l-356 -1341h-197l-61 647l-264 -647h-187z" />
<glyph unicode="X" d="M10 0l441 698l-205 643h133l164 -563h10l313 563h138l-400 -669l234 -672h-138l-190 590h-10l-353 -590h-137z" />
<glyph unicode="Y" d="M70 1341h125l217 -645h10l420 645h129l-516 -761l-93 -580h-112l92 580z" />
<glyph unicode="Z" d="M68 0v82l751 1161h-581l14 98h702v-81l-755 -1164h618l-12 -96h-737z" />
<glyph unicode="[" d="M147 -319l318 1943h395l-16 -102h-289l-285 -1739h299l-24 -102h-398z" />
<glyph unicode="\" d="M143 1409l103 45l596 -1493l-101 -45z" />
<glyph unicode="]" d="M143 -319l17 102h293l284 1739h-301l23 102h401l-317 -1943h-400z" />
<glyph unicode="_" d="M23 -262l12 88h966l-12 -88h-966z" />
<glyph unicode="`" d="M303 1368l55 100l332 -200l-51 -88z" />
<glyph unicode="a" d="M106 354q0 223 115 416q57 94 153.5 154.5t219.5 60.5q39 0 102.5 -19.5t102.5 -39.5l12 41h109l-123 -742l4 -229l-103 -12l-16 206q-45 -78 -118.5 -143t-141.5 -65q-158 0 -237 98t-79 274zM221 369q0 -121 47.5 -200t151.5 -79q53 0 155.5 107.5t137.5 171.5l75 450 q-111 57 -192 58q-178 0 -276.5 -157t-98.5 -351z" />
<glyph unicode="b" d="M49 0l223 1362h107l-80 -483q158 106 270 106q176 0 256 -126q60 -95 61 -250q0 -51 -8 -109q-26 -234 -150 -376t-308 -142q-53 0 -132 19t-118 40l-12 -41h-109zM180 147q37 -18 119 -38.5t129 -20.5q137 0 227 114q89 112 111 294q6 51 7 96q0 114 -40 186 q-55 100 -180 100.5t-272 -116.5z" />
<glyph unicode="c" d="M190 485q74 500 443 500q133 0 254 -43l-47 -287h-107l35 203q-94 23 -150 23q-260 0 -323 -396q-10 -59 -10 -110q1 -105 41 -179q60 -110 200 -110q84 0 250 59l17 -102q-162 -61 -279 -61q-190 0 -274 134q-60 95 -60 242q0 59 10 127z" />
<glyph unicode="d" d="M89 484q28 232 149.5 366.5t306.5 134.5q53 0 128 -17.5t115 -37.5l72 432h107l-195 -1192l-4 -178l-102 -12l-4 108q-162 -106 -267 -106q-174 0 -254 135q-59 100 -59 253q0 54 7 114zM200 488q-6 -50 -6 -96q0 -116 40 -194q56 -110 172 -110t264 117l100 614 q-33 18 -110.5 39t-122.5 21q-137 0 -226 -105.5t-111 -285.5z" />
<glyph unicode="e" d="M156 373q0 229 90 409q47 95 135 148q88 55 212 55t198.5 -65.5t74.5 -182t-88 -205t-252 -110.5l-260 -35q4 -154 54.5 -226.5t171 -72.5t286.5 59l19 -102q-166 -63 -318.5 -63t-237.5 102t-85 289zM272 483l240 35q123 18 185.5 78.5t62.5 138.5q0 152 -182 152 q-141 0 -216.5 -115t-89.5 -289z" />
<glyph unicode="f" d="M123 -393q10 20 28.5 79.5t74 381t110.5 802.5h-184l16 103h182q45 405 333 405h1q94 0 203 -35l-37 -104q-106 33 -174 33q-182 0 -217 -299h344l-17 -103h-340q-55 -485 -108 -800.5t-80 -388.5l-27 -74h-108z" />
<glyph unicode="g" d="M31 -328l47 103q180 -78 294.5 -78t199 61.5t102.5 192.5l20 129q-135 -78 -239 -78q-174 0 -254 125q-61 94 -61 247q0 53 8 114q28 233 148 365t308 132q106 0 227 -72l11 60h106l-166 -1020q-20 -182 -138 -272.5t-271.5 -90.5t-341.5 82zM258 488q-5 -50 -5 -93 q0 -115 40 -187q55 -99 172 -99t248 90l100 600q-113 80 -217 80q-137 0 -227 -105q-90 -106 -111 -286z" />
<glyph unicode="h" d="M92 0l223 1362h107l-76 -463q193 86 322 86t187 -88q44 -67 44 -176q0 -34 -4 -72l-113 -649h-102l113 649q3 26 3 49q0 70 -27 118q-36 63 -142.5 63t-296.5 -84l-131 -795h-107z" />
<glyph unicode="i" d="M231 870h246l-90 -542q-14 -117 -16 -195v-6q0 -73 47 -109q49 -38 170 -38l160 24l-13 102q-86 -20 -135 -20q-104 0 -116 51q-4 16 -4 42q0 55 18 153l102 641h-352zM473 1262q8 86 100 86q35 0 57 -20q19 -17 19 -53v-13q-12 -92 -98 -93q-33 0 -57 24q-21 21 -22 57 q0 6 1 12z" />
<glyph unicode="j" d="M137 -289q182 25 256 81t96 190l148 888h-264l16 103h371l-160 -993q-27 -160 -98 -242q-59 -68 -209 -98q-59 -12 -156 -25v96zM627 1262q8 86 100 86q35 0 57 -20q20 -18 20 -53q0 -6 -1 -13q-12 -92 -98 -93q-33 0 -57 24q-22 21 -22 57q0 6 1 12z" />
<glyph unicode="k" d="M117 0l223 1362h106l-135 -830l127 21q160 191 328 420h117q-168 -242 -361 -455q145 -268 266 -518h-122q-139 291 -230 453l-141 -19l-72 -434h-106z" />
<glyph unicode="l" d="M283 1260l14 102h373l-168 -1030q-18 -98 -18 -153q0 -25 4 -41q12 -52 106 -52t207 39l12 -102q-121 -43 -231.5 -43t-159.5 38q-47 36 -47 109v6q2 78 20 195l152 932h-264z" />
<glyph unicode="m" d="M-18 0l159 973h103v-62q106 74 174 74q113 0 151 -88q119 88 201 88q133 0 169 -81q22 -49 22 -133q0 -53 -9 -120l-104 -651h-109l109 651q10 50 10 91t-10 74q-20 67 -96 67q-53 0 -160 -68q1 -19 1 -39q0 -60 -9 -125l-56 -340h-108l55 340q12 58 12 101 q0 126 -102 127q-72 0 -162 -66l-135 -813h-106z" />
<glyph unicode="n" d="M100 0l160 973h98l-4 -82q201 94 326 94q124 0 184 -90q45 -68 46 -174q0 -34 -5 -72l-102 -649h-109l109 649q3 24 3 47q0 69 -28 119q-37 63 -135 63q-1 0 -1 1q-98 0 -304 -91l-131 -788h-107z" />
<glyph unicode="o" d="M137 479q72 506 430 506h6q181 0 265 -123q64 -95 64 -262q0 -54 -7 -115q-72 -505 -430 -505h-6q-328 0 -328 384q0 54 6 115zM247 484q-11 -67 -11 -123q0 -105 38 -173q58 -103 192 -102h5q250 0 315 397q11 65 11 121q-1 104 -39 172q-58 104 -193 106h-3 q-134 0 -208 -102q-76 -104 -107 -296z" />
<glyph unicode="p" d="M4 -393l195 1190l4 178l104 12l4 -110q153 108 275 108h2q176 0 254 -132q58 -98 58 -252q0 -53 -7 -113q-27 -232 -165 -369t-331 -137q-102 0 -217 55l-69 -430h-107zM199 147q35 -20 98 -37.5t109 -17.5q141 0 247.5 107.5t128.5 286.5q6 53 6 99q0 112 -38 187 q-52 107 -173.5 107t-277.5 -119z" />
<glyph unicode="q" d="M123 381q0 260 123 432t335.5 172t364.5 -70l-213 -1308h-106l78 479q-154 -104 -261 -104q-154 0 -237.5 106.5t-83.5 292.5zM233 399q0 -143 59.5 -227t167 -84t265.5 125l102 627q-39 16 -112.5 31.5t-126.5 15.5q-160 0 -257.5 -143.5t-97.5 -344.5z" />
<glyph unicode="r" d="M250 870l16 103h299l-20 -119q68 43 182.5 83t200.5 48l-15 -121q-80 -6 -201 -40.5t-184 -71.5l-122 -752h-107l141 870h-190z" />
<glyph unicode="s" d="M176 43l29 111q184 -68 292.5 -68t174 53.5t65.5 153.5q0 59 -43 94t-170 67.5t-194.5 90t-67.5 147.5q0 141 94.5 219t246 78t294.5 -57l-29 -105q-152 53 -258 53q-1 0 -2 1q-104 1 -170 -47t-66.5 -113.5t46.5 -102.5q49 -33 180 -69.5t189.5 -92t58.5 -174 t-95.5 -209.5t-249 -91t-325.5 61z" />
<glyph unicode="t" d="M201 856l16 102h189l38 236l111 20l-43 -256h328l-17 -102h-327l-84 -524q-2 -25 -8.5 -65t-7.5 -55t-3 -41t2 -34l11 -22q14 -29 103 -29t200 39l12 -102q-119 -43 -230.5 -43t-160.5 38q-48 37 -48 112q0 74 19 198l88 528h-188z" />
<glyph unicode="u" d="M143 317l107 656h106l-106 -656q-3 -23 -3 -45q1 -70 31 -120q40 -64 134 -64t303 102l129 783h106l-159 -973h-93l4 84q-195 -102 -321.5 -102t-190.5 91q-50 71 -51 180q0 31 4 64z" />
<glyph unicode="v" d="M193 973h116l127 -875h35l373 875h117l-422 -973h-195z" />
<glyph unicode="w" d="M125 0l8 973h100l-2 -875h35l189 494h110l72 -494h35l225 875h100l-245 -973h-207l-49 424h-15l-151 -424h-205z" />
<glyph unicode="x" d="M74 0l370 494l-245 479h133l190 -402l279 402h131l-348 -479l250 -494h-132l-200 416l-295 -416h-133z" />
<glyph unicode="y" horiz-adv-x="931" d="M2 -422l12 105q115 4 174.5 36.5t100.5 124.5l57 142l-153 987h116l121 -828h10l367 828h115l-519 -1139q-72 -156 -148.5 -204t-252.5 -52z" />
<glyph unicode="z" d="M129 84l610 786h-497l16 103h627v-84l-613 -787h547l-16 -102h-668z" />
<glyph unicode="{" d="M250 621l10 92l193 102q27 176 46 365.5t25 240.5q31 203 224 203h208l-14 -102h-201q-92 0 -108 -113q-8 -59 -30.5 -272t-49.5 -387l-186 -78l-2 -10l161 -78q-23 -156 -66.5 -383.5t-56.5 -304.5q-16 -113 72 -113h201l-14 -102h-209q-193 0 -162 202q12 76 52 277.5 t63 357.5z" />
<glyph unicode="|" d="M322 -500l307 2022h104l-307 -2022h-104z" />
<glyph unicode="}" d="M80 -319l12 102h201q92 0 108 113q14 94 39 319t45 369l187 78l2 10l-162 78q25 166 67 375.5t52 283.5q16 113 -72 113h-201l17 102h209q190 0 159 -203q-10 -72 -47.5 -257t-64.5 -349l160 -102l-11 -92l-194 -103q-23 -147 -42.5 -348t-33.5 -287q-31 -203 -221 -202 h-209z" />
<glyph unicode="~" d="M72 522q98 84 161 121q61 37 131 37t172.5 -79t166 -79t206.5 125l52 -61q-94 -84 -155 -121t-114 -37q-86 0 -192.5 79t-155.5 79q-74 0 -219 -127z" />
<glyph unicode="&#xa0;" />
<glyph unicode="&#xa1;" d="M324 -395l190 1024h94l-153 -1024h-131zM522 850l27 176h141l-26 -176h-142z" />
<glyph unicode="&#xa3;" d="M66 0l16 104q119 2 150.5 79t101.5 468h-166l16 103h148q2 141 13 275t77.5 218t167.5 113q199 57 422 -12l-37 -109q-152 55 -311 23q-78 -16 -135.5 -74t-69.5 -154q-8 -45 -13 -280h385l-16 -103h-362q-47 -266 -60 -338q-31 -154 -78 -209h600l-16 -104h-833z" />
<glyph unicode="&#xa5;" d="M23 344l16 102h756l-17 -102h-755zM68 637l16 102h756l-17 -102h-755zM106 1341h121l232 -575h4l411 575h134l-500 -679l-105 -662h-112l104 662z" />
<glyph unicode="&#xa8;" d="M268 1319q0 33 24.5 57.5t58.5 24.5t50.5 -18.5t16.5 -50.5t-24.5 -57.5t-61.5 -25.5q-63 0 -64 70zM664 1318q0 32 25.5 57.5t58 25.5t50 -18.5t17.5 -50.5t-25.5 -57.5t-58.5 -25.5t-50 18.5t-17 50.5z" />
<glyph unicode="&#xab;" d="M229 401l13 101l452 350l-22 -143l-340 -265l258 -262l-21 -131zM543 426l12 92l449 330l-23 -143l-336 -240l262 -238l-22 -131z" />
<glyph unicode="&#xad;" d="M195 436l18 107h586l-19 -107h-585z" />
<glyph unicode="&#xb0;" d="M221 1122.5q0 114.5 99.5 205.5t218 91t187.5 -67.5t69 -182t-98.5 -206t-218.5 -91.5t-188.5 68t-68.5 182.5zM334 1150q-10 -79 32 -131t117.5 -54t132 48t66.5 129t-31 132t-117.5 55t-133 -49t-66.5 -130z" />
<glyph unicode="&#xb1;" d="M-18 111l14 86h962l-14 -86h-962zM61 614l15 88h430l51 330h102l-51 -330h430l-14 -88h-430l-49 -311h-103l50 311h-431z" />
<glyph unicode="&#xb4;" d="M311 1274l336 201l37 -111l-338 -188z" />
<glyph unicode="&#xb5;" d="M29 -354q47 84 62.5 137.5t25.5 116.5l166 1073h112l-104 -658q-16 -111 17.5 -173t164.5 -62t295 135l123 758h108l-153 -973h-105l11 94q-63 -53 -148.5 -83.5t-161.5 -30.5q-152 0 -198 88l-23 -174q-29 -176 -112 -287z" />
<glyph unicode="&#xb6;" d="M33 862q0 299 128 435.5t445 136.5h49l-276 -1434h-72l105 541q-197 14 -288 86.5t-91 234.5zM104 874q0 -137 76 -196.5t244 -71.5l147 762q-268 -4 -367.5 -110.5t-99.5 -383.5zM635 0l276 1434h72l-276 -1434h-72z" />
<glyph unicode="&#xb8;" d="M332 -481l24 88q37 -10 95 -10q127 0 127 120q0 76 -97 76q-35 0 -90 -10l2 84q66 16 125 16q164 0 164 -168q0 -90 -63.5 -150.5t-159.5 -60.5q-51 0 -127 15z" />
<glyph unicode="&#xbb;" d="M166 86l24 147l334 236l-260 242l23 133l342 -330l-15 -98zM479 82l23 147l338 260l-256 267l22 133l338 -350l-14 -107z" />
<glyph unicode="&#xbf;" d="M180 -100q12 119 58 190q45 74 159.5 176.5t145 147.5t39 114.5t10.5 133.5l102 4q6 -45 0 -150q-12 -90 -51 -147q-41 -55 -155.5 -157.5t-149.5 -160t-47 -149.5t42 -147.5t142 -55.5t161 38t175 116l49 -84q-121 -90 -207 -133.5t-180 -43.5q-141 0 -226 81.5 t-67 226.5zM569 813l23 191h166l-25 -191h-164z" />
<glyph unicode="&#xc0;" d="M-61 0l600 1341h196l154 -1341h-121l-35 309h-543l-135 -309h-116zM236 412h485l-88 833h-29zM471 1829l55 100l332 -200l-51 -89z" />
<glyph unicode="&#xc1;" d="M-61 0l600 1341h196l154 -1341h-121l-35 309h-543l-135 -309h-116zM236 412h485l-88 833h-29zM446 1735l336 200l37 -110l-338 -189z" />
<glyph unicode="&#xc2;" d="M-61 0l600 1341h196l154 -1341h-121l-35 309h-543l-135 -309h-116zM236 412h485l-88 833h-29zM338 1663l313 332h92l209 -332h-118l-152 250l-227 -250h-117z" />
<glyph unicode="&#xc3;" d="M-61 0l600 1341h196l154 -1341h-121l-35 309h-543l-135 -309h-116zM236 412h485l-88 833h-29zM328 1798q135 111 208.5 111t143.5 -54.5t107 -54.5t137 82l41 -67q-125 -113 -192.5 -113t-135.5 55t-113 55t-149 -83z" />
<glyph unicode="&#xc4;" d="M-61 0l600 1341h196l154 -1341h-121l-35 309h-543l-135 -309h-116zM236 412h485l-88 833h-29zM403 1778q0 33 25 58.5t58.5 25.5t50 -18.5t16.5 -50.5t-24.5 -57.5t-61.5 -25.5q-63 -2 -64 68zM799 1778.5q0 31.5 25.5 57.5t58 26t50 -18.5t17.5 -50.5t-25.5 -57.5 t-58 -25.5t-50 18.5t-17.5 50z" />
<glyph unicode="&#xc5;" d="M-61 0l600 1341h196l154 -1341h-121l-35 309h-543l-135 -309h-116zM236 412h485l-88 833h-29zM459 1740q0 89 68.5 151.5t167 62.5t148.5 -44t50 -134t-69.5 -151.5t-167 -61.5t-147.5 44t-50 133zM545 1737q0 -96 110 -97q68 0 108 37t40 101q0 96 -111 96 q-68 0 -107.5 -37t-39.5 -100z" />
<glyph unicode="&#xc6;" d="M-70 0l605 1341h618l-16 -98h-357l-90 -512h301l-18 -98h-301l-92 -535h362l-18 -98h-486l56 309h-304l-141 -309h-119zM238 412h274l156 833h-64z" />
<glyph unicode="&#xc7;" d="M106 684q57 348 190.5 513t365.5 165q154 0 299 -51l-46 -271h-106l29 183q-78 33 -191 32q-168 0 -269.5 -139t-152.5 -432q-49 -317 12.5 -456.5t225.5 -139.5q117 0 295 55l8 -104q-172 -57 -324 -57q-223 0 -308 163.5t-28 538.5zM213 -481l25 88q37 -10 94 -10 q127 0 127 120q0 76 -97 76q-35 0 -90 -10l2 84q66 16 125 16q164 0 164 -168q0 -90 -63.5 -150.5t-159.5 -60.5q-51 0 -127 15z" />
<glyph unicode="&#xc8;" d="M104 0l222 1341h659l-16 -102h-553l-84 -508h504l-17 -102h-504l-86 -527h562l-17 -102h-670zM481 1829l56 100l331 -200l-51 -89z" />
<glyph unicode="&#xc9;" d="M104 0l222 1341h659l-16 -102h-553l-84 -508h504l-17 -102h-504l-86 -527h562l-17 -102h-670zM467 1735l336 200l37 -110l-338 -189z" />
<glyph unicode="&#xca;" d="M104 0l222 1341h659l-16 -102h-553l-84 -508h504l-17 -102h-504l-86 -527h562l-17 -102h-670zM358 1663l314 332h92l209 -332h-119l-152 250l-227 -250h-117z" />
<glyph unicode="&#xcb;" d="M104 0l222 1341h659l-16 -102h-553l-84 -508h504l-17 -102h-504l-86 -527h562l-17 -102h-670zM403 1778q0 33 25 58.5t58.5 25.5t50 -18.5t16.5 -50.5t-24.5 -57.5t-61.5 -25.5q-63 -2 -64 68zM799 1778.5q0 31.5 25.5 57.5t58 26t50 -18.5t17.5 -50.5t-25.5 -57.5 t-58 -25.5t-50 18.5t-17.5 50z" />
<glyph unicode="&#xcc;" d="M98 0l17 102h217l186 1137h-223l16 102h541l-16 -102h-211l-187 -1137h219l-16 -102h-543zM420 1829l55 100l332 -200l-51 -89z" />
<glyph unicode="&#xcd;" d="M98 0l17 102h217l186 1137h-223l16 102h541l-16 -102h-211l-187 -1137h219l-16 -102h-543zM426 1735l336 200l37 -110l-338 -189z" />
<glyph unicode="&#xce;" d="M98 0l17 102h217l186 1137h-223l16 102h541l-16 -102h-211l-187 -1137h219l-16 -102h-543zM317 1663l314 332h92l209 -332h-119l-151 250l-228 -250h-117z" />
<glyph unicode="&#xcf;" d="M98 0l17 102h217l186 1137h-223l16 102h541l-16 -102h-211l-187 -1137h219l-16 -102h-543zM362 1778q0 33 25 58.5t58.5 25.5t50 -18.5t16.5 -50.5t-24.5 -57.5t-61.5 -25.5q-63 -2 -64 68zM758 1778.5q0 31.5 25.5 57.5t58 26t50 -18.5t17.5 -50.5t-25.5 -57.5 t-58 -25.5t-50 18.5t-17.5 50z" />
<glyph unicode="&#xd1;" d="M0 0l221 1341h105l432 -942l155 942h107l-219 -1341h-105l33 211l-434 932l-186 -1143h-109zM317 1798q133 111 207 111t143.5 -54.5t106.5 -54.5t139 82l41 -67q-125 -113 -192.5 -113t-135 55t-112.5 55t-149 -83z" />
<glyph unicode="&#xd2;" d="M82 320.5q-4 156.5 29 367.5q53 326 172 500t350 174q158 0 236.5 -89t82.5 -238.5t-25.5 -331t-66.5 -300.5t-98 -219q-123 -205 -367 -204q-154 0 -231.5 92t-81.5 248.5zM193.5 346q3.5 -84 25 -138t69.5 -89t131 -35t154 49q70 47 115 141q80 164 123 414 q55 299 2 442q-20 53 -70.5 90t-128 37t-139 -36.5t-101.5 -89t-71 -134.5t-47 -150.5t-32.5 -164.5t-25 -174t-5 -162zM481 1829l56 100l331 -200l-51 -89z" />
<glyph unicode="&#xd3;" d="M82 320.5q-4 156.5 29 367.5q53 326 172 500t350 174q158 0 236.5 -89t82.5 -238.5t-25.5 -331t-66.5 -300.5t-98 -219q-123 -205 -367 -204q-154 0 -231.5 92t-81.5 248.5zM193.5 346q3.5 -84 25 -138t69.5 -89t131 -35t154 49q70 47 115 141q80 164 123 414 q55 299 2 442q-20 53 -70.5 90t-128 37t-139 -36.5t-101.5 -89t-71 -134.5t-47 -150.5t-32.5 -164.5t-25 -174t-5 -162zM487 1735l336 200l37 -110l-338 -189z" />
<glyph unicode="&#xd4;" d="M82 320.5q-4 156.5 29 367.5q53 326 172 500t350 174q158 0 236.5 -89t82.5 -238.5t-25.5 -331t-66.5 -300.5t-98 -219q-123 -205 -367 -204q-154 0 -231.5 92t-81.5 248.5zM193.5 346q3.5 -84 25 -138t69.5 -89t131 -35t154 49q70 47 115 141q80 164 123 414 q55 299 2 442q-20 53 -70.5 90t-128 37t-139 -36.5t-101.5 -89t-71 -134.5t-47 -150.5t-32.5 -164.5t-25 -174t-5 -162zM369 1663l313 332h92l209 -332h-119l-151 250l-228 -250h-116z" />
<glyph unicode="&#xd5;" d="M82 320.5q-4 156.5 29 367.5q53 326 172 500t350 174q158 0 236.5 -89t82.5 -238.5t-25.5 -331t-66.5 -300.5t-98 -219q-123 -205 -367 -204q-154 0 -231.5 92t-81.5 248.5zM193.5 346q3.5 -84 25 -138t69.5 -89t131 -35t154 49q70 47 115 141q80 164 123 414 q55 299 2 442q-20 53 -70.5 90t-128 37t-139 -36.5t-101.5 -89t-71 -134.5t-47 -150.5t-32.5 -164.5t-25 -174t-5 -162zM348 1798q133 111 208 111t144.5 -54.5t105.5 -54.5t138 82l41 -67q-125 -113 -192.5 -113t-135 55t-112.5 55t-150 -83z" />
<glyph unicode="&#xd6;" d="M82 320.5q-4 156.5 29 367.5q53 326 172 500t350 174q158 0 236.5 -89t82.5 -238.5t-25.5 -331t-66.5 -300.5t-98 -219q-123 -205 -367 -204q-154 0 -231.5 92t-81.5 248.5zM193.5 346q3.5 -84 25 -138t69.5 -89t131 -35t154 49q70 47 115 141q80 164 123 414 q55 299 2 442q-20 53 -70.5 90t-128 37t-139 -36.5t-101.5 -89t-71 -134.5t-47 -150.5t-32.5 -164.5t-25 -174t-5 -162zM412 1778q0 33 24.5 58.5t58 25.5t50 -18.5t16.5 -50.5t-24.5 -57.5t-61.5 -25.5q-63 -2 -63 68zM807 1778.5q0 31.5 25.5 57.5t58.5 26t50 -18.5 t17 -50.5t-25.5 -57.5t-58 -25.5t-50 18.5t-17.5 50z" />
<glyph unicode="&#xd9;" d="M86 389l156 952h106l-153 -946q-55 -315 221 -315q137 0 220 87t107 228l156 946h107l-156 -952q-35 -199 -150 -303t-303 -104t-265 108.5t-46 298.5zM461 1829l55 100l332 -200l-51 -89z" />
<glyph unicode="&#xda;" d="M86 389l156 952h106l-153 -946q-55 -315 221 -315q137 0 220 87t107 228l156 946h107l-156 -952q-35 -199 -150 -303t-303 -104t-265 108.5t-46 298.5zM487 1735l336 200l37 -110l-338 -189z" />
<glyph unicode="&#xdb;" d="M86 389l156 952h106l-153 -946q-55 -315 221 -315q137 0 220 87t107 228l156 946h107l-156 -952q-35 -199 -150 -303t-303 -104t-265 108.5t-46 298.5zM342 1663l313 332h93l208 -332h-118l-152 250l-227 -250h-117z" />
<glyph unicode="&#xdc;" d="M86 389l156 952h106l-153 -946q-55 -315 221 -315q137 0 220 87t107 228l156 946h107l-156 -952q-35 -199 -150.5 -303t-303 -104t-264.5 108.5t-46 298.5zM383 1778q0 33 24.5 58.5t58.5 25.5t50 -18.5t16 -50.5t-24.5 -57.5t-61.5 -25.5q-63 -2 -63 68zM778 1778.5 q0 31.5 25.5 57.5t58.5 26t50.5 -18.5t17.5 -50.5t-25.5 -57.5t-58.5 -25.5t-50.5 18.5t-17.5 50z" />
<glyph unicode="&#xe0;" d="M106 354q0 223 115 416q57 94 153.5 154.5t219.5 60.5q39 0 102.5 -19.5t102.5 -39.5l12 41h109l-123 -742l4 -229l-103 -12l-16 206q-45 -78 -118.5 -143t-141.5 -65q-158 0 -237 98t-79 274zM221 369q0 -121 47.5 -200t151.5 -79q53 0 155.5 107.5t137.5 171.5l75 450 q-111 57 -192 58q-178 0 -276.5 -157t-98.5 -351zM440 1368l56 100l331 -200l-51 -88z" />
<glyph unicode="&#xe1;" d="M106 354q0 223 115 416q57 94 153.5 154.5t219.5 60.5q39 0 102.5 -19.5t102.5 -39.5l12 41h109l-123 -742l4 -229l-103 -12l-16 206q-45 -78 -118.5 -143t-141.5 -65q-158 0 -237 98t-79 274zM221 369q0 -121 47.5 -200t151.5 -79q53 0 155.5 107.5t137.5 171.5l75 450 q-111 57 -192 58q-178 0 -276.5 -157t-98.5 -351zM436 1274l336 201l37 -111l-338 -188z" />
<glyph unicode="&#xe2;" d="M106 354q0 223 115 416q57 94 153.5 154.5t219.5 60.5q39 0 102.5 -19.5t102.5 -39.5l12 41h109l-123 -742l4 -229l-103 -12l-16 206q-45 -78 -118.5 -143t-141.5 -65q-158 0 -237 98t-79 274zM221 369q0 -121 47.5 -200t151.5 -79q53 0 155.5 107.5t137.5 171.5l75 450 q-111 57 -192 58q-178 0 -276.5 -157t-98.5 -351zM317 1202l314 332h92l209 -332h-119l-151 250l-228 -250h-117z" />
<glyph unicode="&#xe3;" d="M106 354q0 223 115 416q57 94 153.5 154.5t219.5 60.5q39 0 102.5 -19.5t102.5 -39.5l12 41h109l-123 -742l4 -229l-103 -12l-16 206q-45 -78 -118.5 -143t-141.5 -65q-158 0 -237 98t-79 274zM221 369q0 -121 47.5 -200t151.5 -79q53 0 155.5 107.5t137.5 171.5l75 450 q-111 57 -192 58q-178 0 -276.5 -157t-98.5 -351zM328 1337q133 111 207.5 111t144.5 -54.5t106 -54.5t138 82l41 -67q-125 -113 -192.5 -113t-135.5 55.5t-113 55.5t-149 -84z" />
<glyph unicode="&#xe4;" d="M106 354q0 223 115 416q57 94 153.5 154.5t219.5 60.5q39 0 102.5 -19.5t102.5 -39.5l12 41h109l-123 -742l4 -229l-103 -12l-16 206q-45 -78 -118.5 -143t-141.5 -65q-158 0 -237 98t-79 274zM221 369q0 -121 47.5 -200t151.5 -79q53 0 155.5 107.5t137.5 171.5l75 450 q-111 57 -192 58q-178 0 -276.5 -157t-98.5 -351zM383 1319q0 33 24.5 57.5t58.5 24.5t50 -18.5t16 -50.5t-24.5 -57.5t-61.5 -25.5q-63 0 -63 70zM778 1318q0 32 25.5 57.5t58.5 25.5t50.5 -18.5t17.5 -50.5t-25.5 -57.5t-58.5 -25.5t-50.5 18.5t-17.5 50.5z" />
<glyph unicode="&#xe5;" d="M106 354q0 223 115 416q57 94 153.5 154.5t219.5 60.5q39 0 102.5 -19.5t102.5 -39.5l12 41h109l-123 -742l4 -229l-103 -12l-16 206q-45 -78 -118.5 -143t-141.5 -65q-158 0 -237 98t-79 274zM221 369q0 -121 47.5 -200t151.5 -79q53 0 155.5 107.5t137.5 171.5l75 450 q-111 57 -192 58q-178 0 -276.5 -157t-98.5 -351zM449 1310q0 89 68.5 151.5t166.5 62.5t148.5 -44t50.5 -134.5t-70 -151.5t-167 -61t-147 44t-50 133zM535 1307q0 -96 110 -97q68 0 108 37t40 101q0 96 -111 96q-68 0 -107.5 -37t-39.5 -100z" />
<glyph unicode="&#xe6;" d="M76 213q0 154 91 246t241 92h133q33 172 22.5 243.5t-98.5 71.5t-232 -63l-20 98q158 72 257 72t139 -26.5t53 -94.5q33 57 91 94t130 37q143 0 188 -103.5t10 -328.5l-24 -107h-416q-10 -84 -11 -180t32.5 -138t109.5 -42q51 2 166 35l37 10l14 -98q-141 -51 -233 -51 t-139.5 25.5t-73.5 96.5q-87 -122 -271 -122q-92 0 -144 62t-52 171zM193 225q0 -141 106 -141q51 0 100 27q47 25 72 51l25 26l24 258h-129q-94 0 -146 -57t-52 -164zM664 547h299q28 158 8.5 244t-106.5 86t-128 -74t-73 -256z" />
<glyph unicode="&#xe7;" d="M190 485q74 500 443 500q133 0 254 -43l-47 -287h-107l35 203q-94 23 -150 23q-260 0 -323 -396q-29 -180 30.5 -289.5t200.5 -109.5q84 0 250 59l17 -102q-162 -61 -279 -61q-190 0 -274 134t-50 369zM274 -481l25 88q37 -10 94 -10q127 0 127 120q0 76 -96 76 q-35 0 -90 -10l2 84q66 16 125 16q164 0 164 -168q0 -90 -63.5 -150.5t-160.5 -60.5q-51 0 -127 15z" />
<glyph unicode="&#xe8;" d="M156 373q0 229 90 409q47 95 135 148q88 55 212 55t198.5 -65.5t74.5 -182t-88 -205t-252 -110.5l-260 -35q4 -154 54.5 -226.5t171 -72.5t286.5 59l19 -102q-166 -63 -318.5 -63t-237.5 102t-85 289zM272 483l240 35q123 18 185.5 78.5t62.5 138.5q0 152 -182 152 q-141 0 -216.5 -115t-89.5 -289zM420 1368l55 100l332 -200l-51 -88z" />
<glyph unicode="&#xe9;" d="M156 373q0 229 90 409q47 95 135 148q88 55 212 55t198.5 -65.5t74.5 -182t-88 -205t-252 -110.5l-260 -35q4 -154 54.5 -226.5t171 -72.5t286.5 59l19 -102q-166 -63 -318.5 -63t-237.5 102t-85 289zM272 483l240 35q123 18 185.5 78.5t62.5 138.5q0 152 -182 152 q-141 0 -216.5 -115t-89.5 -289zM395 1274l336 201l37 -111l-338 -188z" />
<glyph unicode="&#xea;" d="M156 373q0 229 90 409q47 95 135 148q88 55 212 55t198.5 -65.5t74.5 -182t-88 -205t-252 -110.5l-260 -35q4 -154 54.5 -226.5t171 -72.5t286.5 59l19 -102q-166 -63 -318.5 -63t-237.5 102t-85 289zM272 483l240 35q123 18 185.5 78.5t62.5 138.5q0 152 -182 152 q-141 0 -216.5 -115t-89.5 -289zM307 1202l314 332h92l209 -332h-119l-152 250l-227 -250h-117z" />
<glyph unicode="&#xeb;" d="M156 373q0 229 90 409q47 95 135 148q88 55 212 55t198.5 -65.5t74.5 -182t-88 -205t-252 -110.5l-260 -35q4 -154 54.5 -226.5t171 -72.5t286.5 59l19 -102q-166 -63 -318.5 -63t-237.5 102t-85 289zM272 483l240 35q123 18 185.5 78.5t62.5 138.5q0 152 -182 152 q-141 0 -216.5 -115t-89.5 -289zM342 1319q0 33 24.5 57.5t58.5 24.5t50.5 -18.5t16.5 -50.5t-24.5 -57.5t-61.5 -25.5q-63 0 -64 70zM737 1318q0 32 25.5 57.5t58.5 25.5t50.5 -18.5t17.5 -50.5t-25.5 -57.5t-58.5 -25.5t-50.5 18.5t-17.5 50.5z" />
<glyph unicode="&#xec;" d="M231 870h246l-90 -542q-14 -117 -16 -195t47 -115.5t170 -37.5l160 24l-13 102q-86 -20 -135 -20q-104 0 -116.5 51t14.5 195l102 641h-352zM297 1368l55 100l332 -200l-51 -88z" />
<glyph unicode="&#xed;" d="M231 870h246l-90 -542q-14 -117 -16 -195t47 -115.5t170 -37.5l160 24l-13 102q-86 -20 -135 -20q-104 0 -116.5 51t14.5 195l102 641h-352zM313 1274l336 201l37 -111l-338 -188z" />
<glyph unicode="&#xee;" d="M174 1202l313 332h93l208 -332h-118l-152 250l-227 -250h-117zM231 870h246l-90 -542q-14 -117 -16 -195t47 -115.5t170 -37.5l160 24l-13 102q-86 -20 -135 -20q-104 0 -116.5 51t14.5 195l102 641h-352z" />
<glyph unicode="&#xef;" d="M219 1319q0 33 24.5 57.5t58.5 24.5t50.5 -18.5t16.5 -50.5t-24.5 -57.5t-61.5 -25.5q-63 0 -64 70zM231 870h246l-90 -542q-14 -117 -16 -195t47 -115.5t170 -37.5l160 24l-13 102q-86 -20 -135 -20q-104 0 -116.5 51t14.5 195l102 641h-352zM614 1318q0 32 26 57.5 t58.5 25.5t50 -18.5t17.5 -50.5t-25.5 -57.5t-58.5 -25.5t-50.5 18.5t-17.5 50.5z" />
<glyph unicode="&#xf1;" d="M100 0l160 973h98l-4 -82q201 94 326 94t184.5 -90t40.5 -246l-102 -649h-109l109 649q12 100 -25 166q-37 63 -135 63.5t-305 -90.5l-131 -788h-107zM307 1337q135 111 209 111t143.5 -54.5t106.5 -54.5t137 82l41 -67q-125 -113 -192.5 -113t-135 55.5t-112.5 55.5 t-150 -84z" />
<glyph unicode="&#xf2;" d="M137 479q72 506 430 506q186 2 270.5 -123t57.5 -377q-72 -505 -430 -505q-381 -4 -328 499zM247 484.5q-32 -191.5 27.5 -296t196.5 -102.5q250 0 315 397q31 189 -27.5 293.5t-193.5 105.5t-210.5 -102.5t-107.5 -295zM420 1368l55 100l332 -200l-51 -88z" />
<glyph unicode="&#xf3;" d="M137 479q72 506 430 506q186 2 270.5 -123t57.5 -377q-72 -505 -430 -505q-381 -4 -328 499zM247 484.5q-32 -191.5 27.5 -296t196.5 -102.5q250 0 315 397q31 189 -27.5 293.5t-193.5 105.5t-210.5 -102.5t-107.5 -295zM416 1274l336 201l36 -111l-337 -188z" />
<glyph unicode="&#xf4;" d="M137 479q72 506 430 506q186 2 270.5 -123t57.5 -377q-72 -505 -430 -505q-381 -4 -328 499zM247 484.5q-32 -191.5 27.5 -296t196.5 -102.5q250 0 315 397q31 189 -27.5 293.5t-193.5 105.5t-210.5 -102.5t-107.5 -295zM297 1202l313 332h92l209 -332h-118l-152 250 l-227 -250h-117z" />
<glyph unicode="&#xf5;" d="M137 479q72 506 430 506q186 2 270.5 -123t57.5 -377q-72 -505 -430 -505q-381 -4 -328 499zM247 484.5q-32 -191.5 27.5 -296t196.5 -102.5q250 0 315 397q31 189 -27.5 293.5t-193.5 105.5t-210.5 -102.5t-107.5 -295zM305 1337q133 111 207 111t143.5 -54.5 t106.5 -54.5t139 82l41 -67q-125 -113 -192.5 -113t-135 55.5t-112.5 55.5t-150 -84z" />
<glyph unicode="&#xf6;" d="M137 479q72 506 430 506q186 2 270.5 -123t57.5 -377q-72 -505 -430 -505q-381 -4 -328 499zM247 484.5q-32 -191.5 27.5 -296t196.5 -102.5q250 0 315 397q31 189 -27.5 293.5t-193.5 105.5t-210.5 -102.5t-107.5 -295zM362 1319q0 33 25 57.5t58.5 24.5t50 -18.5 t16.5 -50.5t-24.5 -57.5t-61.5 -25.5q-63 0 -64 70zM758 1318q0 32 25.5 57.5t58 25.5t50 -18.5t17.5 -50.5t-25.5 -57.5t-58 -25.5t-50 18.5t-17.5 50.5z" />
<glyph unicode="&#xf7;" d="M63 535h881l17 94h-881zM371 254q0 119 102 119q70 0 70 -74q0 -57 -22.5 -84t-76.5 -27q-73 0 -73 66zM463 836q0 117 102 116q70 0 70 -73q0 -111 -100 -111q-72 0 -72 68z" />
<glyph unicode="&#xf9;" d="M143 317l107 656h106l-106 -656q-12 -100 27.5 -164.5t134 -64.5t303.5 102l129 783h106l-159 -973h-93l4 84q-195 -102 -321.5 -102t-191 91t-46.5 244zM434 1368l55 100l332 -200l-51 -88z" />
<glyph unicode="&#xfa;" d="M143 317l107 656h106l-106 -656q-12 -100 27.5 -164.5t134 -64.5t303.5 102l129 783h106l-159 -973h-93l4 84q-195 -102 -321.5 -102t-191 91t-46.5 244zM436 1274l336 201l37 -111l-338 -188z" />
<glyph unicode="&#xfb;" d="M143 317l107 656h106l-106 -656q-12 -100 27.5 -164.5t134 -64.5t303.5 102l129 783h106l-159 -973h-93l4 84q-195 -102 -321.5 -102t-191 91t-46.5 244zM309 1202l314 332h92l209 -332h-119l-152 250l-227 -250h-117z" />
<glyph unicode="&#xfc;" d="M143 317l107 656h106l-106 -656q-12 -100 27.5 -164.5t134 -64.5t303.5 102l129 783h106l-159 -973h-93l4 84q-197 -102 -322.5 -102t-190 91t-46.5 244zM362 1319q0 33 25 57.5t58.5 24.5t50 -18.5t16.5 -50.5t-24.5 -57.5t-61.5 -25.5q-63 0 -64 70zM758 1318 q0 32 25.5 57.5t58 25.5t50 -18.5t17.5 -50.5t-25.5 -57.5t-58 -25.5t-50 18.5t-17.5 50.5z" />
<glyph unicode="&#xff;" horiz-adv-x="931" d="M2 -422l12 105q115 4 174.5 36.5t100.5 124.5l57 142l-153 987h116l121 -828h10l367 828h115l-519 -1139q-72 -156 -148.5 -204t-252.5 -52zM315 1319q0 33 25 57.5t58.5 24.5t50 -18.5t16.5 -50.5t-24.5 -57.5t-61.5 -25.5q-63 0 -64 70zM711 1318q0 32 25.5 57.5 t58 25.5t50 -18.5t17.5 -50.5t-25.5 -57.5t-58.5 -25.5t-50 18.5t-17 50.5z" />
<glyph unicode="&#x152;" d="M23 680q110 669 595 661h451l-16 -98h-316l-80 -512h261l-17 -98h-260l-84 -535h322l-17 -98h-456q-199 0 -314 147q-119 152 -69 533zM141 680q-47 -305 36 -444.5t245 -135.5h22l181 1139q-381 12 -484 -559z" />
<glyph unicode="&#x153;" d="M16 304q0 163 39 315.5t123 259t193 106.5q51 0 89 -20.5t55 -46t30 -58.5q12 -39 12 -74l4 21q4 12 21.5 47t41 61.5t69.5 48t102 21.5q141 0 188 -109.5t16 -328.5l-22 -103h-422q-27 -356 156 -356q68 2 159 35l31 10l17 -102q-129 -49 -204 -49t-118 20.5t-64 46.5 q-25 29 -36 66q-16 47 -17 92q-2 -14 -6 -27l-10 -30q-16 -61 -70 -111q-63 -59 -171.5 -59t-157 80.5t-48.5 243.5zM123 293q0 -211 121 -211q96 0 159.5 189.5t63.5 396.5q0 104 -25.5 155t-89.5 51q-96 0 -162.5 -185t-66.5 -396zM571 547h312q27 158 4 245t-106 87 t-123 -52.5t-52 -109.5q-16 -53 -20 -82z" />
<glyph unicode="&#x178;" d="M70 1341h125l217 -645h10l420 645h129l-516 -761l-93 -580h-112l92 580zM270 1778q0 33 24.5 58.5t58.5 25.5t50.5 -18.5t16.5 -50.5t-24.5 -57.5t-61.5 -25.5q-63 -2 -64 68zM666 1778.5q0 31.5 25.5 57.5t58 26t50 -18.5t17.5 -50.5t-25.5 -57.5t-58.5 -25.5t-50 18.5 t-17 50z" />
<glyph unicode="&#x2c6;" d="M207 1202l313 332h92l209 -332h-119l-151 250l-227 -250h-117z" />
<glyph unicode="&#x2dc;" d="M203 1337q133 111 206.5 111t143.5 -54.5t107 -54.5t139 82l41 -67q-125 -113 -192.5 -113t-135.5 55.5t-113 55.5t-149 -84z" />
<glyph unicode="&#x2000;" horiz-adv-x="997" />
<glyph unicode="&#x2001;" horiz-adv-x="1995" />
<glyph unicode="&#x2002;" horiz-adv-x="997" />
<glyph unicode="&#x2003;" horiz-adv-x="1995" />
<glyph unicode="&#x2004;" horiz-adv-x="665" />
<glyph unicode="&#x2005;" horiz-adv-x="498" />
<glyph unicode="&#x2006;" horiz-adv-x="332" />
<glyph unicode="&#x2007;" horiz-adv-x="332" />
<glyph unicode="&#x2008;" horiz-adv-x="249" />
<glyph unicode="&#x2009;" horiz-adv-x="399" />
<glyph unicode="&#x200a;" horiz-adv-x="110" />
<glyph unicode="&#x2010;" d="M195 436l18 107h586l-19 -107h-585z" />
<glyph unicode="&#x2011;" d="M195 436l18 107h586l-19 -107h-585z" />
<glyph unicode="&#x2012;" d="M195 436l18 107h586l-19 -107h-585z" />
<glyph unicode="&#x2013;" horiz-adv-x="1444" d="M195 436l31 107h993l-32 -107h-992z" />
<glyph unicode="&#x2014;" horiz-adv-x="2468" d="M195 436l61 107h1987l-64 -107h-1984z" />
<glyph unicode="&#x2018;" d="M385 965l227 411l84 -22l-186 -424z" />
<glyph unicode="&#x2019;" d="M387 967l186 424l125 -35l-229 -412z" />
<glyph unicode="&#x201c;" d="M217 991l227 412l84 -23l-186 -424zM504 954l229 412l82 -23l-186 -423z" />
<glyph unicode="&#x201d;" d="M240 973l186 424l125 -35l-229 -412zM526 936l187 424l125 -35l-228 -412z" />
<glyph unicode="&#x2026;" d="M117 0l26 166h142l-27 -166h-141zM430 0l27 166h141l-27 -166h-141zM745 0l27 166h141l-26 -166h-142z" />
<glyph unicode="&#x202f;" horiz-adv-x="399" />
<glyph unicode="&#x2039;" d="M285 422l12 96l451 342l-21 -139l-340 -250l258 -260l-20 -131z" />
<glyph unicode="&#x203a;" d="M272 74l21 137l338 252l-256 258l20 133l340 -342l-12 -96z" />
<glyph unicode="&#x205f;" horiz-adv-x="498" />
<glyph unicode="&#x20ac;" d="M12 494l15 90h714l-14 -90h-715zM51 737l15 90h714l-14 -90h-715zM129 662q57 344 189.5 500.5t365.5 156.5q190 0 328 -53l-47 -105q-39 16 -141.5 33.5t-153.5 17.5q-170 0 -270.5 -130t-151.5 -420q-49 -315 11 -445.5t222 -130.5t340 55l8 -104q-68 -23 -179 -40 t-185 -17q-225 0 -309 154.5t-27 527.5z" />
<glyph unicode="&#x2122;" d="M12 1128l17 80h352l-16 -80h-86l-103 -528h-98l102 528h-168zM334 600l119 608h98l115 -383l247 383h99l-119 -608h-82l88 449l-233 -363h-52l-108 365l-88 -451h-84z" />
<glyph unicode="&#x25fc;" horiz-adv-x="972" d="M0 0v973h973v-973h-973z" />
<glyph unicode="&#xfb01;" d="M-25 -393q10 20 29 79.5t74 381t110 802.5h-182l14 103h183q20 201 117.5 303t261.5 102q129 0 245 -30l39 -11l-30 -100q-147 41 -265 41t-180.5 -75t-79.5 -230h559l-82 -641q-27 -143 -14.5 -194.5t117.5 -51.5q49 0 135 20l12 -102q-121 -25 -159 -24 q-121 0 -170.5 37.5t-47 115.5t16.5 195l70 542h-449q-55 -485 -108.5 -800.5t-79.5 -388.5l-27 -74h-109z" />
<glyph unicode="&#xfb02;" d="M-45 -393q10 20 28.5 79.5t74 381t110.5 802.5h-182l14 103h182q20 201 117.5 303t261.5 102h381l-133 -1048q-27 -143 -13.5 -194.5t103.5 -51.5t207 41l12 -105q-119 -43 -229.5 -43t-160.5 38t-48 116t18 195l121 952h-264q-123 0 -185.5 -75t-78.5 -230h348l-16 -103 h-344q-55 -485 -108.5 -800.5t-80.5 -388.5l-27 -74h-108z" />
</font>
</defs>
</svg>
